<svg height="464pt" viewBox="0 0 464 464" width="464pt" xmlns="http://www.w3.org/2000/svg"><path d="m312 173.359375c-14.160156-2.078125-30.078125-3.597656-47.121094-4.480469-10.558594-.558594-21.597656-.878906-32.878906-.878906s-22.320312.320312-32.878906.878906c-17.042969.882813-32.960938 2.402344-47.121094 4.480469-38.558594 5.761719-64 15.519531-64 26.640625 0 17.679688 64.480469 32 144 32s144-14.320312 144-32c0-11.121094-25.441406-20.878906-64-26.640625zm0 0" fill="#ffb655"/><path d="m464 16c0 8.835938-7.164062 16-16 16s-16-7.164062-16-16 7.164062-16 16-16 16 7.164062 16 16zm0 0" fill="#ff5023"/><path d="m464 112c0 8.835938-7.164062 16-16 16s-16-7.164062-16-16 7.164062-16 16-16 16 7.164062 16 16zm0 0" fill="#ff5023"/><path d="m376 224c17.671875 0 32 14.328125 32 32s-14.328125 32-32 32h-.238281c.160156-2.640625.238281-5.359375.238281-8zm0 0" fill="#ffb655"/><path d="m376 224v56c0 2.640625-.078125 5.359375-.238281 8-2.847657 51.628906-33.167969 97.761719-79.433594 120.855469-46.265625 23.089843-101.359375 19.585937-144.328125-9.175781-7.855469-5.207032-15.171875-11.183594-21.839844-17.839844-25.046875-25.054688-39.976562-58.464844-41.921875-93.839844-.160156-2.640625-.238281-5.359375-.238281-8v-80c0 17.679688 64.480469 32 144 32s144-14.320312 144-32zm0 0" fill="#ffc477"/><path d="m312 399.679688v64.320312h-160v-64.320312c48.402344 32.429687 111.597656 32.429687 160 0zm0 0" fill="#ffc477"/><path d="m320 72v-32l-16-16h-24l-8-24h-24l-16 16v176l16 16h24l8-24 32-8v-16l24-24v-40zm0 0" fill="#ed539d"/><path d="m216 0h-24l-8 24h-24l-16 16v32l-16 24v40l24 24v16l32 8 8 24h24l16-16v-176zm0 0" fill="#ea348b"/><path d="m88.238281 288h-.238281c-17.671875 0-32-14.328125-32-32s14.328125-32 32-32v56c0 2.640625.078125 5.359375.238281 8zm0 0" fill="#ffb655"/><path d="m32 16c0 8.835938-7.164062 16-16 16s-16-7.164062-16-16 7.164062-16 16-16 16 7.164062 16 16zm0 0" fill="#ff5023"/><path d="m32 112c0 8.835938-7.164062 16-16 16s-16-7.164062-16-16 7.164062-16 16-16 16 7.164062 16 16zm0 0" fill="#ff5023"/><path d="m232 344c-13.253906 0-24-10.746094-24-24v-48h16v48c0 4.417969 3.582031 8 8 8s8-3.582031 8-8v-48h16v48c0 13.253906-10.746094 24-24 24zm0 0" fill="#ffa733"/><path d="m328 280h-16c0-4.417969-3.582031-8-8-8s-8 3.582031-8 8h-16c0-13.253906 10.746094-24 24-24s24 10.746094 24 24zm0 0" fill="#ee8700"/><path d="m184 280h-16c0-4.417969-3.582031-8-8-8s-8 3.582031-8 8h-16c0-13.253906 10.746094-24 24-24s24 10.746094 24 24zm0 0" fill="#ee8700"/><path d="m232 384c-31.40625 0-56-17.601562-56-40h16c0 13.007812 18.3125 24 40 24s40-10.992188 40-24h16c0 22.398438-24.59375 40-56 40zm0 0" fill="#ffa733"/><g fill="#e4187a"><path d="m272 48h-16v-8c0-2.121094.84375-4.15625 2.34375-5.65625l10.34375-10.34375c3.125-3.125 8.1875-3.125 11.3125 0s3.125 8.1875 0 11.3125l-8 8zm0 0"/><path d="m312 96h-16v-8c0-2.121094.84375-4.15625 2.34375-5.65625l10.34375-10.34375c3.125-3.125 8.1875-3.125 11.3125 0s3.125 8.1875 0 11.3125l-8 8zm0 0"/><path d="m274.34375 109.65625-16-16c-1.5-1.5-2.34375-3.535156-2.34375-5.65625v-24h16v20.6875l13.65625 13.65625zm0 0"/><path d="m268.6875 184-10.34375-10.34375c-1.5-1.5-2.34375-3.535156-2.34375-5.65625v-8h16v4.6875l8 8c3.125 3.125 3.125 8.1875 0 11.3125s-8.1875 3.125-11.3125 0zm0 0"/><path d="m312 152c-4.417969 0-8-3.582031-8-8v-16h16v16c0 4.417969-3.582031 8-8 8zm0 0"/><path d="m288 152h-16v-12.6875l-5.65625-5.65625 11.3125-11.3125 8 8c1.5 1.5 2.34375 3.535156 2.34375 5.65625zm0 0"/></g><path d="m208 48h-16v-4.6875l-8-8c-3.125-3.125-3.125-8.1875 0-11.3125s8.1875-3.125 11.3125 0l10.34375 10.34375c1.5 1.5 2.34375 3.535156 2.34375 5.65625zm0 0" fill="#c61469"/><path d="m168 96h-16v-4.6875l-8-8c-3.125-3.125-3.125-8.1875 0-11.3125s8.1875-3.125 11.3125 0l10.34375 10.34375c1.5 1.5 2.34375 3.535156 2.34375 5.65625zm0 0" fill="#c61469"/><path d="m189.65625 109.65625-11.3125-11.3125 13.65625-13.65625v-20.6875h16v24c0 2.121094-.84375 4.15625-2.34375 5.65625zm0 0" fill="#c61469"/><path d="m184 184c-3.125-3.125-3.125-8.1875 0-11.3125l8-8v-4.6875h16v8c0 2.121094-.84375 4.15625-2.34375 5.65625l-10.34375 10.34375c-3.125 3.125-8.1875 3.125-11.3125 0zm0 0" fill="#c61469"/><path d="m152 152c-4.417969 0-8-3.582031-8-8v-16h16v16c0 4.417969-3.582031 8-8 8zm0 0" fill="#c61469"/><path d="m192 152h-16v-16c0-2.121094.84375-4.15625 2.34375-5.65625l8-8 11.3125 11.3125-5.65625 5.65625zm0 0" fill="#c61469"/><path d="m365.65625 53.65625-11.3125-11.3125 32-32c1.5-1.5 3.535156-2.34375 5.65625-2.34375h16v16h-12.6875zm0 0" fill="#ff9811"/><path d="m360 104h48v16h-48zm0 0" fill="#ff9811"/><path d="m98.34375 53.65625-29.65625-29.65625h-12.6875v-16h16c2.121094 0 4.15625.84375 5.65625 2.34375l32 32zm0 0" fill="#ff9811"/><path d="m56 104h48v16h-48zm0 0" fill="#ff9811"/><path d="m312 399.679688v16c-48.402344 32.429687-111.597656 32.429687-160 0v-16c48.402344 32.429687 111.597656 32.429687 160 0zm0 0" fill="#ffb655"/></svg>